<svg xmlns="http://www.w3.org/2000/svg" width="27" height="19" viewBox="0 0 27 19" fill="none"><path d="M10.4531 9.42188C10.8047 10.4375 10.6484 10.0469 11.0391 11.1016C11.9375 13.5625 11.5078 14.5781 11.1562 15.3203L1.66406 11.8828C0.804688 11.5312 0.765625 10.3594 1.54688 9.96875C2.36719 9.53906 3.8125 8.99219 4.94531 5.86719C4.98438 5.78906 5.53125 4.26562 5.57031 4.1875C6.54688 1.49219 9.55469 0.0859375 12.25 1.0625C12.6406 1.21875 12.9922 1.41406 13.3047 1.64844C10.6484 3.17188 9.35938 6.45312 10.4531 9.42188ZM6.39062 16.8828C5.29688 16.4922 4.67188 15.3984 4.75 14.3047L9.24219 15.9453C8.61719 16.8438 7.44531 17.2734 6.39062 16.8828ZM20.5703 18.1328C19.5156 18.5234 18.3438 18.0938 17.7188 17.1953L22.2109 15.5547C22.2891 16.6484 21.6641 17.7422 20.5703 18.1328ZM25.4141 11.2188C26.2734 11.6484 26.1172 12.8203 25.2969 13.1328L13.5391 17.3906C12.6797 17.7031 11.8984 16.8047 12.25 16.0234C12.6016 15.1641 13.3438 13.7969 12.2109 10.6719C12.1719 10.5938 11.625 9.10938 11.625 8.99219C10.6094 6.29688 12.0156 3.32812 14.7109 2.35156C17.4453 1.33594 20.4141 2.74219 21.3906 5.4375C21.4297 5.51562 21.9766 7.03906 22.0156 7.11719C23.1484 10.2422 24.5938 10.7891 25.4141 11.2188Z" fill="#DE968D"></path></svg>