<svg xmlns="http://www.w3.org/2000/svg" width="149" height="149" viewBox="0 0 149 149" fill="none"><mask id="path-1-outside-1_12_188" maskUnits="userSpaceOnUse" x="-1" y="-0.999995" width="150.614" height="150.614" fill="black"><rect fill="white" x="-1" y="-0.999995" width="150.614" height="150.614"></rect><path d="M37.3495 39.3382C37.1838 37.8467 38.5096 36.5209 40.1669 36.5209H109.441C111.099 36.5209 112.259 37.681 112.259 39.3382V108.613C112.259 110.27 110.933 111.596 109.441 111.43L102.978 111.596C101.321 111.596 99.9947 110.27 100.16 108.778L99.9947 57.2369L43.4814 113.75C42.3213 114.91 40.6641 114.91 39.504 113.75L34.8636 109.11C33.8692 108.115 33.7035 106.292 34.8636 105.132L91.3769 48.619H40.0011C38.5096 48.7847 37.1838 47.4589 37.1838 45.8016L37.3495 39.3382Z"></path></mask><path d="M37.3495 39.3382L38.3492 39.3639L38.3509 39.2956L38.3434 39.2278L37.3495 39.3382ZM109.441 111.43L109.552 110.436L109.484 110.429L109.416 110.43L109.441 111.43ZM102.978 111.596V112.596H102.991L103.003 112.595L102.978 111.596ZM100.16 108.778L101.154 108.889L101.161 108.832L101.16 108.775L100.16 108.778ZM99.9947 57.2369L100.995 57.2337L100.987 54.8304L99.2876 56.5298L99.9947 57.2369ZM91.3769 48.619L92.084 49.3261L93.7911 47.619H91.3769V48.619ZM40.0011 48.619L40.0011 47.619L39.9458 47.619L39.8907 47.6251L40.0011 48.619ZM37.1838 45.8016L36.1841 45.776L36.1838 45.7888L36.1838 45.8016L37.1838 45.8016ZM38.3434 39.2278C38.2554 38.4358 38.9923 37.5209 40.1669 37.5209L40.1669 35.5209C38.0269 35.5209 36.1122 37.2576 36.3556 39.4487L38.3434 39.2278ZM40.1669 37.5209L109.441 37.5209V35.5209L40.1669 35.5209L40.1669 37.5209ZM109.441 37.5209C110.03 37.5209 110.472 37.7229 110.764 38.0152C111.057 38.3074 111.259 38.7491 111.259 39.3382H113.259C113.259 38.2701 112.881 37.3031 112.179 36.601C111.476 35.8988 110.509 35.5209 109.441 35.5209V37.5209ZM111.259 39.3382V108.613H113.259V39.3382H111.259ZM111.259 108.613C111.259 109.787 110.344 110.524 109.552 110.436L109.331 112.424C111.522 112.667 113.259 110.753 113.259 108.613H111.259ZM109.416 110.43L102.952 110.596L103.003 112.595L109.467 112.43L109.416 110.43ZM102.978 110.596C101.803 110.596 101.066 109.681 101.154 108.889L99.1666 108.668C98.9231 110.859 100.838 112.596 102.978 112.596V110.596ZM101.16 108.775L100.995 57.2337L98.9947 57.2401L99.1605 108.782L101.16 108.775ZM99.2876 56.5298L42.7743 113.043L44.1885 114.457L100.702 57.944L99.2876 56.5298ZM42.7743 113.043C42.0048 113.813 40.9806 113.813 40.2111 113.043L38.7969 114.457C40.3475 116.008 42.6379 116.008 44.1885 114.457L42.7743 113.043ZM40.2111 113.043L35.5707 108.403L34.1565 109.817L38.7969 114.457L40.2111 113.043ZM35.5707 108.403C34.9282 107.76 34.8386 106.571 35.5707 105.839L34.1565 104.425C32.5683 106.013 32.8102 108.471 34.1565 109.817L35.5707 108.403ZM35.5707 105.839L92.084 49.3261L90.6698 47.9119L34.1565 104.425L35.5707 105.839ZM91.3769 47.619L40.0011 47.619L40.0011 49.619L91.3769 49.619V47.619ZM39.8907 47.6251C39.0987 47.7131 38.1838 46.9762 38.1838 45.8016L36.1838 45.8016C36.1838 47.9416 37.9205 49.8563 40.1116 49.6129L39.8907 47.6251ZM38.1834 45.8273L38.3492 39.3639L36.3498 39.3126L36.1841 45.776L38.1834 45.8273Z" fill="#27252A" mask="url(#path-1-outside-1_12_188)"></path></svg>