<svg xmlns="http://www.w3.org/2000/svg" width="179" height="5" viewBox="0 0 179 5" fill="none"><path d="M164.807 0.615385C160.924 0.5 156.975 0.384615 153.025 0.269231C151.753 0.230769 150.415 0.230769 149.143 0.192308C146.331 0.153846 143.52 0.115385 140.708 0.0769231C139.169 0.0384615 137.562 0.0384615 136.022 0C135.554 0 135.085 0 134.684 0C133.68 0 132.675 0 131.604 0C126.986 0 122.367 0 117.748 0C116.677 0 115.539 0 114.468 0.0384615C111.723 0.0769231 109.046 0.0769231 106.301 0.115385C103.222 0.153846 100.142 0.153846 97.0632 0.192308C92.1097 0.269231 87.0892 0.346154 82.1356 0.423077C79.2572 0.461538 76.3787 0.5 73.5003 0.538462C68.5467 0.653846 63.5932 0.769231 58.6396 0.884615C55.895 0.961538 53.2174 1 50.4729 1.07692C45.3185 1.26923 40.1641 1.42308 35.0097 1.57692C32.2652 1.65385 29.5206 1.73077 26.7761 1.84615C21.6886 2.07692 16.5342 2.34615 11.4468 2.61538C10.3757 2.65385 9.23774 2.73077 8.09976 2.76923C5.95768 2.88462 3.74865 3.07692 1.53962 3.23077C1.40574 3.23077 1.27186 3.26923 1.13798 3.26923C0.870222 3.26923 0.669402 3.34615 0.468581 3.46154C0.13388 3.65385 0 3.88462 0 4.11539C0 4.34615 0.13388 4.57692 0.468581 4.73077C0.736342 4.88462 1.20492 5 1.53962 5C4.21723 4.84615 6.8279 4.65385 9.5055 4.5C11.9823 4.38462 14.4591 4.26923 16.9359 4.15385C19.6135 4.03846 22.2911 3.88462 25.0356 3.76923C26.1067 3.73077 27.1777 3.65385 28.3157 3.61538C32.5329 3.5 36.6832 3.34615 40.9004 3.23077C43.5111 3.15385 46.1218 3.07692 48.7324 3C49.8035 2.96154 50.8745 2.92308 51.9456 2.88462C56.0959 2.76923 60.2462 2.69231 64.3964 2.57692C66.9402 2.53846 69.417 2.46154 71.9607 2.42308C72.8309 2.42308 73.6342 2.38462 74.5044 2.38462C78.9894 2.30769 83.4744 2.26923 87.9594 2.19231C90.4362 2.15385 92.9799 2.11538 95.4567 2.07692C96.3269 2.07692 97.2641 2.03846 98.1343 2.03846C102.753 2 107.372 2 112.058 1.96154C114.936 1.96154 117.815 1.92308 120.693 1.92308C125.58 1.92308 130.533 1.92308 135.42 1.96154C136.357 1.96154 137.361 2 138.298 2C141.043 2.03846 143.721 2.07692 146.465 2.15385C148.473 2.19231 150.548 2.23077 152.557 2.26923C154.029 2.30769 155.435 2.34615 156.908 2.38462C161.125 2.5 165.409 2.65385 169.626 2.80769C170.697 2.84615 171.768 2.88462 172.84 2.92308C173.978 2.96154 175.182 3 176.32 3.07692C176.521 3.07692 176.655 3.11539 176.856 3.15385C177.325 3.19231 177.726 3.19231 178.128 3.03846C178.529 2.92308 178.797 2.69231 178.931 2.46154C179.199 1.96154 178.663 1.42308 177.726 1.26923C176.923 1.15385 176.12 1.11538 175.383 1.03846C174.848 1 174.312 0.961538 173.777 0.961538C172.706 0.884615 171.635 0.884615 170.63 0.807692C168.756 0.769231 166.748 0.692308 164.807 0.615385Z" fill="#DE968D"></path></svg>