<svg xmlns="http://www.w3.org/2000/svg" width="1920" height="730" viewBox="0 0 1920 730" fill="none"><circle cx="300" cy="515" r="214.4" stroke="white" stroke-opacity="0.05" stroke-width="1.2"></circle><circle cx="1841" cy="215" r="214.4" stroke="white" stroke-opacity="0.05" stroke-width="1.2"></circle><circle cx="299.5" cy="514.5" r="131.9" stroke="white" stroke-opacity="0.05" stroke-width="1.2"></circle><g clip-path="url(#clip0_138_306)"><path d="M1832.62 294.361C1806.31 243.404 1775.02 193.467 1740.28 147.746" stroke="#DAC8B4" stroke-miterlimit="10" stroke-linecap="round" stroke-linejoin="round"></path><path d="M1725.85 140.083C1722.27 134.847 1720.36 128.716 1717.68 122.969C1712.31 111.731 1703.88 102.152 1693.41 95.6386C1707.08 95.5109 1720.49 101.258 1729.81 111.22C1736.83 118.755 1741.3 128.716 1742.45 138.934C1743.98 153.748 1731.98 148.895 1725.85 140.083Z" stroke="#DAC8B4" stroke-miterlimit="10" stroke-linecap="round" stroke-linejoin="round"></path><path d="M1747.18 156.686C1749.6 138.423 1751.39 120.543 1751.39 102.28C1755.22 105.6 1757.65 110.07 1759.18 114.923C1761.86 122.969 1764.04 131.398 1762.76 139.7C1761.48 148.001 1755.22 154.004 1747.18 156.686Z" stroke="#DAC8B4" stroke-miterlimit="10" stroke-linecap="round" stroke-linejoin="round"></path><path d="M1759.57 174.566C1761.1 149.662 1783.58 131.909 1782.17 107.005C1791.37 118.116 1790.6 134.719 1784.47 147.874C1778.6 161.028 1770.04 164.476 1759.57 174.566Z" stroke="#DAC8B4" stroke-miterlimit="10" stroke-linecap="round" stroke-linejoin="round"></path><path d="M1814.74 119.01C1800.56 125.14 1793.28 140.594 1787.02 154.642C1781.79 166.52 1776.55 178.525 1771.32 190.402C1776.3 183.25 1788.94 184.272 1794.94 177.886C1797.75 174.821 1799.03 170.734 1800.18 166.775C1804.78 151.194 1810.27 134.719 1814.74 119.01Z" stroke="#DAC8B4" stroke-miterlimit="10" stroke-linecap="round" stroke-linejoin="round"></path><path d="M1782.04 207.388C1786.9 192.573 1800.05 180.696 1811.8 170.479C1823.55 160.262 1836.32 150.939 1846.28 138.934C1849.73 149.917 1846.67 160.773 1840.15 170.224C1833.64 179.674 1824.19 186.699 1814.23 192.318C1804.14 197.937 1792.13 202.024 1782.04 207.388Z" stroke="#DAC8B4" stroke-miterlimit="10" stroke-linecap="round" stroke-linejoin="round"></path><path d="M1786.64 214.54C1805.29 209.049 1826.74 204.962 1846.03 203.046C1840.15 211.475 1829.81 217.478 1819.72 219.393C1809.76 221.181 1795.07 220.287 1786.64 214.54Z" stroke="#DAC8B4" stroke-miterlimit="10" stroke-linecap="round" stroke-linejoin="round"></path><path d="M1747.18 156.686C1739.26 160.645 1730.7 156.941 1722.27 152.727C1714.23 148.64 1706.18 143.404 1697.11 143.148C1700.18 153.365 1707.46 161.411 1717.8 164.349C1728.15 167.414 1739.13 163.71 1747.18 156.686Z" stroke="#DAC8B4" stroke-miterlimit="10" stroke-linecap="round" stroke-linejoin="round"></path><path d="M1759.57 174.566C1752.03 179.674 1742.45 180.313 1733.38 179.163C1724.44 178.014 1715.76 175.332 1706.82 174.183C1697.88 173.033 1688.17 173.672 1680.64 178.525C1689.83 177.375 1698.9 181.718 1707.71 184.655C1716.53 187.593 1725.47 190.913 1734.79 190.658C1744.11 190.658 1755.86 182.995 1759.57 174.566Z" stroke="#DAC8B4" stroke-miterlimit="10" stroke-linecap="round" stroke-linejoin="round"></path><path d="M1771.44 190.53C1761.23 201.769 1742.58 207.261 1727.51 205.6C1720.61 204.834 1713.97 202.535 1707.2 201.258C1700.43 199.981 1693.03 199.725 1686.77 202.791C1695.96 208.921 1704.65 216.201 1715.38 218.627C1726.1 221.054 1737.73 220.543 1747.69 215.69C1757.65 210.837 1770.04 201.386 1771.44 190.53Z" stroke="#DAC8B4" stroke-miterlimit="10" stroke-linecap="round" stroke-linejoin="round"></path><path d="M1781.53 207.005C1754.84 225.14 1722.66 235.102 1690.47 235.613C1705.54 242.893 1721.51 245.83 1737.73 241.36C1753.69 236.762 1772.34 220.926 1781.53 207.005Z" stroke="#DAC8B4" stroke-miterlimit="10" stroke-linecap="round" stroke-linejoin="round"></path><path d="M1786.77 214.796C1779.23 222.458 1772.21 228.972 1764.67 236.635C1760.84 240.466 1757.01 244.298 1754.2 248.895C1751.39 253.493 1749.48 258.857 1749.99 264.221C1752.03 259.879 1756.76 257.708 1761.1 255.664C1765.44 253.621 1770.17 251.96 1774.13 249.151C1783.7 242.126 1787.92 226.418 1786.77 214.796Z" stroke="#DAC8B4" stroke-miterlimit="10" stroke-linecap="round" stroke-linejoin="round"></path><path d="M1696.48 95.6386C1706.44 99.2146 1714.23 107.261 1720.87 115.562C1729.04 125.779 1734.28 136.124 1740.28 147.746" stroke="#DAC8B4" stroke-width="0.5" stroke-miterlimit="10" stroke-linecap="round" stroke-linejoin="round"></path><path d="M1747.94 155.281C1754.33 148.895 1756.88 139.444 1757.01 130.377C1757.01 121.309 1754.84 112.497 1752.54 103.685" stroke="#DAC8B4" stroke-width="0.5" stroke-miterlimit="10" stroke-linecap="round" stroke-linejoin="round"></path><path d="M1760.59 172.267C1765.19 161.794 1772.08 152.599 1777.19 142.382C1782.3 132.165 1787.02 119.138 1783.45 108.41" stroke="#DAC8B4" stroke-width="0.5" stroke-miterlimit="10" stroke-linecap="round" stroke-linejoin="round"></path><path d="M1697.11 143.148C1707.71 156.43 1728.91 162.816 1745.26 157.963" stroke="#DAC8B4" stroke-width="0.5" stroke-miterlimit="10" stroke-linecap="round" stroke-linejoin="round"></path><path d="M1680.64 178.525C1686.51 177.12 1697.5 176.609 1703.37 178.014C1709.25 179.419 1714.99 181.462 1721 182.484C1733.51 184.655 1746.92 182.356 1757.91 175.971" stroke="#DAC8B4" stroke-width="0.5" stroke-miterlimit="10" stroke-linecap="round" stroke-linejoin="round"></path><path d="M1772.72 187.848C1777.45 183.378 1782.04 178.653 1785.75 173.289C1796.99 157.452 1800.56 137.273 1811.16 120.926" stroke="#DAC8B4" stroke-width="0.5" stroke-miterlimit="10" stroke-linecap="round" stroke-linejoin="round"></path><path d="M1782.04 207.388C1793.67 197.299 1808.86 186.699 1821.12 177.375C1827 172.905 1833.13 168.308 1837.73 162.561C1842.45 156.814 1847.18 146.98 1846.41 139.572" stroke="#DAC8B4" stroke-width="0.5" stroke-miterlimit="10" stroke-linecap="round" stroke-linejoin="round"></path><path d="M1688.68 202.918C1693.79 201.897 1699.16 203.301 1704.14 205.089C1708.99 206.877 1713.84 209.304 1718.83 210.581C1727.89 212.88 1737.73 211.603 1746.41 207.771C1754.97 203.94 1765.19 198.321 1771.44 191.169" stroke="#DAC8B4" stroke-width="0.5" stroke-miterlimit="10" stroke-linecap="round" stroke-linejoin="round"></path><path d="M1691.37 235.996C1702.35 237.912 1712.95 239.955 1721.51 238.423C1730.06 236.89 1738.24 233.442 1746.28 229.866C1757.65 224.757 1772.47 215.69 1781.53 207.005" stroke="#DAC8B4" stroke-width="0.5" stroke-miterlimit="10" stroke-linecap="round" stroke-linejoin="round"></path><path d="M1750.63 262.561C1751.78 257.58 1754.97 253.365 1758.67 249.917C1762.38 246.469 1766.59 243.531 1770.42 240.211C1777.83 233.57 1783.58 225.14 1786.9 215.817" stroke="#DAC8B4" stroke-width="0.5" stroke-miterlimit="10" stroke-linecap="round" stroke-linejoin="round"></path><path d="M1786.64 214.54C1805.29 215.179 1828.15 210.709 1845.26 203.557" stroke="#DAC8B4" stroke-width="0.5" stroke-miterlimit="10" stroke-linecap="round" stroke-linejoin="round"></path><path d="M1704.39 99.5977C1704.39 98.576 1704.39 97.5543 1704.39 96.5326" stroke="#DAC8B4" stroke-width="0.5" stroke-miterlimit="10" stroke-linecap="round" stroke-linejoin="round"></path><path d="M1706.69 101.258C1706.69 99.8531 1706.69 98.4483 1706.69 97.0434" stroke="#DAC8B4" stroke-width="0.5" stroke-miterlimit="10" stroke-linecap="round" stroke-linejoin="round"></path><path d="M1710.01 103.94C1709.76 101.897 1709.89 100.364 1710.27 98.3206" stroke="#DAC8B4" stroke-width="0.5" stroke-miterlimit="10" stroke-linecap="round" stroke-linejoin="round"></path><path d="M1713.08 106.75C1713.08 104.706 1713.08 102.152 1712.95 99.9808" stroke="#DAC8B4" stroke-width="0.5" stroke-miterlimit="10" stroke-linecap="round" stroke-linejoin="round"></path><path d="M1715.12 108.921C1715.38 106.367 1715.63 104.068 1715.76 101.513" stroke="#DAC8B4" stroke-width="0.5" stroke-miterlimit="10" stroke-linecap="round" stroke-linejoin="round"></path><path d="M1718.31 112.369C1718.31 109.176 1718.57 105.856 1718.83 102.663" stroke="#DAC8B4" stroke-width="0.5" stroke-miterlimit="10" stroke-linecap="round" stroke-linejoin="round"></path><path d="M1721.63 116.456C1721.63 112.497 1721.89 108.921 1722.15 104.962" stroke="#DAC8B4" stroke-width="0.5" stroke-miterlimit="10" stroke-linecap="round" stroke-linejoin="round"></path><path d="M1725.08 121.054C1725.08 116.711 1725.47 112.369 1726.23 108.155" stroke="#DAC8B4" stroke-width="0.5" stroke-miterlimit="10" stroke-linecap="round" stroke-linejoin="round"></path><path d="M1728.28 126.034C1727.89 121.181 1728.28 116.456 1729.3 111.603" stroke="#DAC8B4" stroke-width="0.5" stroke-miterlimit="10" stroke-linecap="round" stroke-linejoin="round"></path><path d="M1730.19 129.227C1731.21 124.374 1732.11 120.032 1732.62 114.923" stroke="#DAC8B4" stroke-width="0.5" stroke-miterlimit="10" stroke-linecap="round" stroke-linejoin="round"></path><path d="M1734.02 135.613C1734.66 131.143 1735.68 124.757 1736.32 120.287" stroke="#DAC8B4" stroke-width="0.5" stroke-miterlimit="10" stroke-linecap="round" stroke-linejoin="round"></path><path d="M1736.83 141.105C1737.73 137.018 1738.62 132.42 1739.26 128.206" stroke="#DAC8B4" stroke-width="0.5" stroke-miterlimit="10" stroke-linecap="round" stroke-linejoin="round"></path><path d="M1754.33 111.092C1754.84 109.815 1755.22 108.921 1756.12 107.899" stroke="#DAC8B4" stroke-width="0.5" stroke-miterlimit="10" stroke-linecap="round" stroke-linejoin="round"></path><path d="M1755.61 116.584C1756.12 114.668 1757.01 112.752 1758.16 111.092" stroke="#DAC8B4" stroke-width="0.5" stroke-miterlimit="10" stroke-linecap="round" stroke-linejoin="round"></path><path d="M1756.5 123.352C1757.78 121.181 1758.93 119.138 1760.2 116.967" stroke="#DAC8B4" stroke-width="0.5" stroke-miterlimit="10" stroke-linecap="round" stroke-linejoin="round"></path><path d="M1757.01 129.866C1758.67 127.184 1759.82 125.268 1761.48 122.586" stroke="#DAC8B4" stroke-width="0.5" stroke-miterlimit="10" stroke-linecap="round" stroke-linejoin="round"></path><path d="M1756.5 137.656C1758.8 134.974 1760.46 133.186 1762.76 130.504" stroke="#DAC8B4" stroke-width="0.5" stroke-miterlimit="10" stroke-linecap="round" stroke-linejoin="round"></path><path d="M1754.84 143.531C1757.91 140.722 1760.08 139.189 1763.01 136.379" stroke="#DAC8B4" stroke-width="0.5" stroke-miterlimit="10" stroke-linecap="round" stroke-linejoin="round"></path><path d="M1751.65 150.556C1755.1 148.512 1757.52 147.746 1760.97 145.83" stroke="#DAC8B4" stroke-width="0.5" stroke-miterlimit="10" stroke-linecap="round" stroke-linejoin="round"></path><path d="M1784.6 115.69C1785.36 114.668 1785.36 114.413 1786.39 113.646" stroke="#DAC8B4" stroke-width="0.5" stroke-miterlimit="10" stroke-linecap="round" stroke-linejoin="round"></path><path d="M1784.47 120.032C1785.24 118.627 1786.39 117.605 1787.79 116.839" stroke="#DAC8B4" stroke-width="0.5" stroke-miterlimit="10" stroke-linecap="round" stroke-linejoin="round"></path><path d="M1783.96 123.608C1785.62 122.075 1786.51 121.437 1788.43 120.16" stroke="#DAC8B4" stroke-width="0.5" stroke-miterlimit="10" stroke-linecap="round" stroke-linejoin="round"></path><path d="M1783.19 126.928C1785.62 125.396 1786.51 124.63 1788.94 123.225" stroke="#DAC8B4" stroke-width="0.5" stroke-miterlimit="10" stroke-linecap="round" stroke-linejoin="round"></path><path d="M1781.4 132.676C1784.47 130.888 1786.13 130.121 1789.2 128.206" stroke="#DAC8B4" stroke-width="0.5" stroke-miterlimit="10" stroke-linecap="round" stroke-linejoin="round"></path><path d="M1778.85 138.806C1782.43 137.273 1785.62 135.613 1788.94 133.57" stroke="#DAC8B4" stroke-width="0.5" stroke-miterlimit="10" stroke-linecap="round" stroke-linejoin="round"></path><path d="M1776.17 144.553C1779.74 143.276 1784.34 141.616 1787.66 139.7" stroke="#DAC8B4" stroke-width="0.5" stroke-miterlimit="10" stroke-linecap="round" stroke-linejoin="round"></path><path d="M1773.1 149.917C1777.06 148.129 1781.4 146.596 1785.49 145.319" stroke="#DAC8B4" stroke-width="0.5" stroke-miterlimit="10" stroke-linecap="round" stroke-linejoin="round"></path><path d="M1770.04 155.153C1774.51 153.365 1778.98 151.577 1783.58 150.045" stroke="#DAC8B4" stroke-width="0.5" stroke-miterlimit="10" stroke-linecap="round" stroke-linejoin="round"></path><path d="M1767.1 160.006C1771.7 157.835 1775.79 155.92 1780.77 154.642" stroke="#DAC8B4" stroke-width="0.5" stroke-miterlimit="10" stroke-linecap="round" stroke-linejoin="round"></path><path d="M1764.42 164.86C1768.25 163.327 1771.19 162.178 1775.15 161.156" stroke="#DAC8B4" stroke-width="0.5" stroke-miterlimit="10" stroke-linecap="round" stroke-linejoin="round"></path><path d="M1762.5 168.18C1764.93 167.542 1767.36 166.264 1769.78 165.754" stroke="#DAC8B4" stroke-width="0.5" stroke-miterlimit="10" stroke-linecap="round" stroke-linejoin="round"></path><path d="M1739.13 145.192C1739.9 141.743 1740.66 138.295 1741.56 134.847" stroke="#DAC8B4" stroke-width="0.5" stroke-miterlimit="10" stroke-linecap="round" stroke-linejoin="round"></path><path d="M1807.84 126.545C1810.01 125.524 1811.8 124.757 1813.84 123.48" stroke="#DAC8B4" stroke-width="0.5" stroke-miterlimit="10" stroke-linecap="round" stroke-linejoin="round"></path><path d="M1805.29 131.782C1807.33 130.504 1809.63 129.483 1811.93 128.589" stroke="#DAC8B4" stroke-width="0.5" stroke-miterlimit="10" stroke-linecap="round" stroke-linejoin="round"></path><path d="M1803.37 136.507C1806.05 135.102 1808.1 134.08 1810.78 132.676" stroke="#DAC8B4" stroke-width="0.5" stroke-miterlimit="10" stroke-linecap="round" stroke-linejoin="round"></path><path d="M1801.46 140.466C1804.27 139.061 1807.08 137.784 1809.89 136.379" stroke="#DAC8B4" stroke-width="0.5" stroke-miterlimit="10" stroke-linecap="round" stroke-linejoin="round"></path><path d="M1799.54 145.192C1802.48 143.787 1805.42 142.382 1808.35 141.105" stroke="#DAC8B4" stroke-width="0.5" stroke-miterlimit="10" stroke-linecap="round" stroke-linejoin="round"></path><path d="M1797.5 150.3C1800.43 149.023 1803.24 147.746 1806.18 146.469" stroke="#DAC8B4" stroke-width="0.5" stroke-miterlimit="10" stroke-linecap="round" stroke-linejoin="round"></path><path d="M1795.45 155.153C1798.65 153.493 1801.84 151.833 1805.03 150.3" stroke="#DAC8B4" stroke-width="0.5" stroke-miterlimit="10" stroke-linecap="round" stroke-linejoin="round"></path><path d="M1793.15 160.262C1796.6 158.602 1799.92 156.814 1803.37 155.153" stroke="#DAC8B4" stroke-width="0.5" stroke-miterlimit="10" stroke-linecap="round" stroke-linejoin="round"></path><path d="M1790.86 165.115C1794.56 163.327 1798.39 161.667 1802.09 159.879" stroke="#DAC8B4" stroke-width="0.5" stroke-miterlimit="10" stroke-linecap="round" stroke-linejoin="round"></path><path d="M1787.54 170.479C1791.88 168.946 1796.22 167.286 1800.43 165.243" stroke="#DAC8B4" stroke-width="0.5" stroke-miterlimit="10" stroke-linecap="round" stroke-linejoin="round"></path><path d="M1784.34 175.332C1789.58 173.033 1793.79 172.267 1799.28 170.479" stroke="#DAC8B4" stroke-width="0.5" stroke-miterlimit="10" stroke-linecap="round" stroke-linejoin="round"></path><path d="M1780 180.441C1786.39 178.269 1790.98 176.992 1797.37 174.821" stroke="#DAC8B4" stroke-width="0.5" stroke-miterlimit="10" stroke-linecap="round" stroke-linejoin="round"></path><path d="M1844.62 151.066C1846.03 150.3 1846.28 149.917 1847.69 149.151" stroke="#DAC8B4" stroke-width="0.5" stroke-miterlimit="10" stroke-linecap="round" stroke-linejoin="round"></path><path d="M1842.07 156.175C1843.98 155.281 1845.26 154.515 1847.18 153.621" stroke="#DAC8B4" stroke-width="0.5" stroke-miterlimit="10" stroke-linecap="round" stroke-linejoin="round"></path><path d="M1839.13 160.773C1841.69 159.879 1843.47 159.24 1846.03 158.346" stroke="#DAC8B4" stroke-width="0.5" stroke-miterlimit="10" stroke-linecap="round" stroke-linejoin="round"></path><path d="M1834.53 166.137C1837.73 165.115 1840.79 164.093 1843.99 163.072" stroke="#DAC8B4" stroke-width="0.5" stroke-miterlimit="10" stroke-linecap="round" stroke-linejoin="round"></path><path d="M1831.21 169.329C1835.3 168.18 1837.34 168.563 1841.43 167.414" stroke="#DAC8B4" stroke-width="0.5" stroke-miterlimit="10" stroke-linecap="round" stroke-linejoin="round"></path><path d="M1825.72 173.799C1830.96 172.522 1834.66 172.011 1839.9 170.734" stroke="#DAC8B4" stroke-width="0.5" stroke-miterlimit="10" stroke-linecap="round" stroke-linejoin="round"></path><path d="M1820.1 178.142C1825.72 176.609 1830.96 176.098 1836.7 174.949" stroke="#DAC8B4" stroke-width="0.5" stroke-miterlimit="10" stroke-linecap="round" stroke-linejoin="round"></path><path d="M1814.35 182.484C1819.72 181.973 1825.21 181.335 1830.57 180.824" stroke="#DAC8B4" stroke-width="0.5" stroke-miterlimit="10" stroke-linecap="round" stroke-linejoin="round"></path><path d="M1809.89 185.805C1815.25 184.783 1819.08 185.294 1824.57 185.294" stroke="#DAC8B4" stroke-width="0.5" stroke-miterlimit="10" stroke-linecap="round" stroke-linejoin="round"></path><path d="M1804.27 189.891C1809.12 189.636 1813.59 189.508 1818.44 189.381" stroke="#DAC8B4" stroke-width="0.5" stroke-miterlimit="10" stroke-linecap="round" stroke-linejoin="round"></path><path d="M1798.65 194.234C1802.86 193.978 1807.08 193.723 1811.16 193.34" stroke="#DAC8B4" stroke-width="0.5" stroke-miterlimit="10" stroke-linecap="round" stroke-linejoin="round"></path><path d="M1793.54 198.065C1796.99 197.554 1800.43 197.299 1803.88 197.427" stroke="#DAC8B4" stroke-width="0.5" stroke-miterlimit="10" stroke-linecap="round" stroke-linejoin="round"></path><path d="M1788.43 202.024C1790.47 201.897 1792.39 201.513 1794.43 201.769" stroke="#DAC8B4" stroke-width="0.5" stroke-miterlimit="10" stroke-linecap="round" stroke-linejoin="round"></path><path d="M1792.52 214.54C1793.41 215.817 1793.79 217.095 1794.56 218.372" stroke="#DAC8B4" stroke-width="0.5" stroke-miterlimit="10" stroke-linecap="round" stroke-linejoin="round"></path><path d="M1796.09 214.54C1796.99 216.201 1798.01 217.733 1798.9 219.393" stroke="#DAC8B4" stroke-width="0.5" stroke-miterlimit="10" stroke-linecap="round" stroke-linejoin="round"></path><path d="M1799.54 214.285C1800.56 216.328 1801.2 217.733 1802.09 219.776" stroke="#DAC8B4" stroke-width="0.5" stroke-miterlimit="10" stroke-linecap="round" stroke-linejoin="round"></path><path d="M1803.88 213.902C1805.03 215.945 1804.9 217.733 1806.31 219.776" stroke="#DAC8B4" stroke-width="0.5" stroke-miterlimit="10" stroke-linecap="round" stroke-linejoin="round"></path><path d="M1807.08 213.646C1808.1 215.945 1809.37 218.116 1810.91 220.16" stroke="#DAC8B4" stroke-width="0.5" stroke-miterlimit="10" stroke-linecap="round" stroke-linejoin="round"></path><path d="M1811.16 212.88C1812.31 215.307 1813.59 217.733 1814.74 220.16" stroke="#DAC8B4" stroke-width="0.5" stroke-miterlimit="10" stroke-linecap="round" stroke-linejoin="round"></path><path d="M1814.99 212.369C1816.14 214.796 1817.42 217.095 1818.83 219.266" stroke="#DAC8B4" stroke-width="0.5" stroke-miterlimit="10" stroke-linecap="round" stroke-linejoin="round"></path><path d="M1818.83 211.731C1819.85 214.285 1821.25 216.584 1823.04 218.755" stroke="#DAC8B4" stroke-width="0.5" stroke-miterlimit="10" stroke-linecap="round" stroke-linejoin="round"></path><path d="M1822.91 210.581C1824.06 212.88 1825.59 214.796 1827.25 216.711" stroke="#DAC8B4" stroke-width="0.5" stroke-miterlimit="10" stroke-linecap="round" stroke-linejoin="round"></path><path d="M1826.62 209.687C1828.02 211.603 1829.43 213.391 1830.96 215.051" stroke="#DAC8B4" stroke-width="0.5" stroke-miterlimit="10" stroke-linecap="round" stroke-linejoin="round"></path><path d="M1830.06 208.921C1831.47 210.581 1832.87 212.114 1834.28 213.774C1834.28 213.646 1834.28 213.519 1834.15 213.391" stroke="#DAC8B4" stroke-width="0.5" stroke-miterlimit="10" stroke-linecap="round" stroke-linejoin="round"></path><path d="M1834.53 207.388C1835.81 208.793 1837.09 210.07 1838.49 211.22" stroke="#DAC8B4" stroke-width="0.5" stroke-miterlimit="10" stroke-linecap="round" stroke-linejoin="round"></path><path d="M1838.62 206.111C1839.51 207.261 1840.03 207.771 1841.17 208.665" stroke="#DAC8B4" stroke-width="0.5" stroke-miterlimit="10" stroke-linecap="round" stroke-linejoin="round"></path><path d="M1699.67 149.662C1700.82 149.278 1701.97 149.406 1703.12 149.023" stroke="#DAC8B4" stroke-width="0.5" stroke-miterlimit="10" stroke-linecap="round" stroke-linejoin="round"></path><path d="M1701.46 152.854C1702.86 152.088 1704.39 151.45 1705.93 151.194" stroke="#DAC8B4" stroke-width="0.5" stroke-miterlimit="10" stroke-linecap="round" stroke-linejoin="round"></path><path d="M1703.75 155.536C1705.8 154.77 1707.71 154.132 1709.63 153.493" stroke="#DAC8B4" stroke-width="0.5" stroke-miterlimit="10" stroke-linecap="round" stroke-linejoin="round"></path><path d="M1706.31 158.474C1708.86 157.324 1710.91 156.175 1713.46 155.409" stroke="#DAC8B4" stroke-width="0.5" stroke-miterlimit="10" stroke-linecap="round" stroke-linejoin="round"></path><path d="M1710.27 160.9C1713.08 159.623 1715.89 158.474 1718.57 157.197" stroke="#DAC8B4" stroke-width="0.5" stroke-miterlimit="10" stroke-linecap="round" stroke-linejoin="round"></path><path d="M1714.99 163.199C1717.8 161.667 1720.49 160.134 1723.3 158.602" stroke="#DAC8B4" stroke-width="0.5" stroke-miterlimit="10" stroke-linecap="round" stroke-linejoin="round"></path><path d="M1719.97 164.987C1723.55 163.327 1726.49 161.539 1729.81 159.496" stroke="#DAC8B4" stroke-width="0.5" stroke-miterlimit="10" stroke-linecap="round" stroke-linejoin="round"></path><path d="M1728.91 165.243C1731.47 163.327 1734.02 161.539 1736.58 159.623" stroke="#DAC8B4" stroke-width="0.5" stroke-miterlimit="10" stroke-linecap="round" stroke-linejoin="round"></path><path d="M1693.15 179.674C1694.56 178.78 1695.58 178.014 1697.11 177.248" stroke="#DAC8B4" stroke-width="0.5" stroke-miterlimit="10" stroke-linecap="round" stroke-linejoin="round"></path><path d="M1697.5 181.335C1699.16 179.93 1700.69 178.78 1702.61 177.886" stroke="#DAC8B4" stroke-width="0.5" stroke-miterlimit="10" stroke-linecap="round" stroke-linejoin="round"></path><path d="M1702.09 182.739C1704.01 181.59 1705.42 180.441 1707.2 179.163" stroke="#DAC8B4" stroke-width="0.5" stroke-miterlimit="10" stroke-linecap="round" stroke-linejoin="round"></path><path d="M1707.2 184.4C1708.99 182.995 1710.78 181.845 1712.69 180.696" stroke="#DAC8B4" stroke-width="0.5" stroke-miterlimit="10" stroke-linecap="round" stroke-linejoin="round"></path><path d="M1712.69 186.699C1714.61 184.911 1715.89 183.25 1718.19 181.973" stroke="#DAC8B4" stroke-width="0.5" stroke-miterlimit="10" stroke-linecap="round" stroke-linejoin="round"></path><path d="M1718.19 188.231C1720.23 186.443 1722.4 184.783 1724.44 182.995" stroke="#DAC8B4" stroke-width="0.5" stroke-miterlimit="10" stroke-linecap="round" stroke-linejoin="round"></path><path d="M1723.68 189.381C1725.59 187.337 1727.64 185.294 1729.81 183.506" stroke="#DAC8B4" stroke-width="0.5" stroke-miterlimit="10" stroke-linecap="round" stroke-linejoin="round"></path><path d="M1729.17 190.658C1731.21 187.976 1733.38 185.549 1735.81 183.25" stroke="#DAC8B4" stroke-width="0.5" stroke-miterlimit="10" stroke-linecap="round" stroke-linejoin="round"></path><path d="M1735.81 190.658C1738.37 187.72 1739.77 185.166 1742.32 182.229" stroke="#DAC8B4" stroke-width="0.5" stroke-miterlimit="10" stroke-linecap="round" stroke-linejoin="round"></path><path d="M1745.13 187.72C1747.31 184.911 1749.48 181.973 1751.78 179.163" stroke="#DAC8B4" stroke-width="0.5" stroke-miterlimit="10" stroke-linecap="round" stroke-linejoin="round"></path><path d="M1692.77 206.75C1694.81 205.473 1695.45 204.451 1697.5 203.174" stroke="#DAC8B4" stroke-width="0.5" stroke-miterlimit="10" stroke-linecap="round" stroke-linejoin="round"></path><path d="M1695.58 209.176C1697.75 207.516 1699.54 205.983 1701.71 204.323" stroke="#DAC8B4" stroke-width="0.5" stroke-miterlimit="10" stroke-linecap="round" stroke-linejoin="round"></path><path d="M1699.28 211.347C1701.71 209.687 1704.01 208.027 1706.44 206.367" stroke="#DAC8B4" stroke-width="0.5" stroke-miterlimit="10" stroke-linecap="round" stroke-linejoin="round"></path><path d="M1703.12 213.774C1705.93 211.986 1707.84 209.815 1710.52 207.771" stroke="#DAC8B4" stroke-width="0.5" stroke-miterlimit="10" stroke-linecap="round" stroke-linejoin="round"></path><path d="M1706.95 215.562C1709.76 213.774 1712.44 211.603 1714.87 209.432" stroke="#DAC8B4" stroke-width="0.5" stroke-miterlimit="10" stroke-linecap="round" stroke-linejoin="round"></path><path d="M1711.93 217.35C1714.61 215.051 1717.16 212.88 1720.1 210.964" stroke="#DAC8B4" stroke-width="0.5" stroke-miterlimit="10" stroke-linecap="round" stroke-linejoin="round"></path><path d="M1717.55 218.883C1720.23 216.456 1722.4 214.157 1725.08 211.731" stroke="#DAC8B4" stroke-width="0.5" stroke-miterlimit="10" stroke-linecap="round" stroke-linejoin="round"></path><path d="M1723.17 219.777C1726.1 217.222 1727 214.413 1729.94 211.858" stroke="#DAC8B4" stroke-width="0.5" stroke-miterlimit="10" stroke-linecap="round" stroke-linejoin="round"></path><path d="M1728.79 220.16C1731.34 217.095 1733.9 214.029 1736.58 211.092" stroke="#DAC8B4" stroke-width="0.5" stroke-miterlimit="10" stroke-linecap="round" stroke-linejoin="round"></path><path d="M1735.3 218.883C1737.47 215.562 1738.88 212.752 1741.3 209.687" stroke="#DAC8B4" stroke-width="0.5" stroke-miterlimit="10" stroke-linecap="round" stroke-linejoin="round"></path><path d="M1740.15 218.627C1742.45 214.923 1744.75 211.22 1747.18 207.516" stroke="#DAC8B4" stroke-width="0.5" stroke-miterlimit="10" stroke-linecap="round" stroke-linejoin="round"></path><path d="M1746.03 216.456C1748.2 213.135 1750.12 208.921 1751.78 205.345" stroke="#DAC8B4" stroke-width="0.5" stroke-miterlimit="10" stroke-linecap="round" stroke-linejoin="round"></path><path d="M1752.54 212.241C1754.07 208.921 1755.99 205.089 1757.78 202.024" stroke="#DAC8B4" stroke-width="0.5" stroke-miterlimit="10" stroke-linecap="round" stroke-linejoin="round"></path><path d="M1758.54 209.432C1760.46 205.345 1762.63 200.619 1764.42 196.533" stroke="#DAC8B4" stroke-width="0.5" stroke-miterlimit="10" stroke-linecap="round" stroke-linejoin="round"></path><path d="M1764.67 202.663C1765.31 199.853 1766.21 197.043 1767.48 194.489" stroke="#DAC8B4" stroke-width="0.5" stroke-miterlimit="10" stroke-linecap="round" stroke-linejoin="round"></path><path d="M1701.07 239.828C1701.58 239.189 1702.48 238.167 1702.99 237.912" stroke="#DAC8B4" stroke-width="0.5" stroke-miterlimit="10" stroke-linecap="round" stroke-linejoin="round"></path><path d="M1704.78 241.105C1705.54 240.211 1706.18 239.444 1706.95 238.55" stroke="#DAC8B4" stroke-width="0.5" stroke-miterlimit="10" stroke-linecap="round" stroke-linejoin="round"></path><path d="M1708.86 241.999C1710.01 240.722 1710.52 240.211 1711.8 239.061" stroke="#DAC8B4" stroke-width="0.5" stroke-miterlimit="10" stroke-linecap="round" stroke-linejoin="round"></path><path d="M1712.44 243.02C1713.59 241.616 1714.87 240.211 1716.14 239.061" stroke="#DAC8B4" stroke-width="0.5" stroke-miterlimit="10" stroke-linecap="round" stroke-linejoin="round"></path><path d="M1717.42 243.404C1718.95 241.232 1719.59 240.211 1721.63 238.423" stroke="#DAC8B4" stroke-width="0.5" stroke-miterlimit="10" stroke-linecap="round" stroke-linejoin="round"></path><path d="M1722.78 243.404C1724.19 241.105 1725.34 239.444 1727 237.401" stroke="#DAC8B4" stroke-width="0.5" stroke-miterlimit="10" stroke-linecap="round" stroke-linejoin="round"></path><path d="M1728.02 243.02C1730.06 239.828 1730.32 238.423 1732.62 235.485" stroke="#DAC8B4" stroke-width="0.5" stroke-miterlimit="10" stroke-linecap="round" stroke-linejoin="round"></path><path d="M1734.53 242.254C1736.83 238.678 1736.58 236.635 1738.88 233.059" stroke="#DAC8B4" stroke-width="0.5" stroke-miterlimit="10" stroke-linecap="round" stroke-linejoin="round"></path><path d="M1741.94 239.828C1743.73 236.124 1744.5 233.57 1746.54 229.994" stroke="#DAC8B4" stroke-width="0.5" stroke-miterlimit="10" stroke-linecap="round" stroke-linejoin="round"></path><path d="M1749.99 235.996C1752.29 231.909 1753.05 229.355 1755.35 225.396" stroke="#DAC8B4" stroke-width="0.5" stroke-miterlimit="10" stroke-linecap="round" stroke-linejoin="round"></path><path d="M1757.01 231.782C1759.06 228.333 1761.1 224.63 1762.89 221.054" stroke="#DAC8B4" stroke-width="0.5" stroke-miterlimit="10" stroke-linecap="round" stroke-linejoin="round"></path><path d="M1766.59 223.863C1767.48 221.309 1768.63 218.755 1769.91 216.328" stroke="#DAC8B4" stroke-width="0.5" stroke-miterlimit="10" stroke-linecap="round" stroke-linejoin="round"></path><path d="M1754.07 259.751C1754.97 256.558 1755.73 253.876 1757.52 251.066" stroke="#DAC8B4" stroke-width="0.5" stroke-miterlimit="10" stroke-linecap="round" stroke-linejoin="round"></path><path d="M1759.31 256.686C1760.08 253.238 1760.97 250.045 1762.25 246.852" stroke="#DAC8B4" stroke-width="0.5" stroke-miterlimit="10" stroke-linecap="round" stroke-linejoin="round"></path><path d="M1763.91 254.515C1765.06 250.683 1766.21 246.852 1767.1 243.02" stroke="#DAC8B4" stroke-width="0.5" stroke-miterlimit="10" stroke-linecap="round" stroke-linejoin="round"></path><path d="M1768.51 252.216C1769.91 247.363 1771.19 243.148 1772.59 238.295" stroke="#DAC8B4" stroke-width="0.5" stroke-miterlimit="10" stroke-linecap="round" stroke-linejoin="round"></path><path d="M1775.02 248.768C1776.3 242.765 1777.57 236.89 1778.98 230.888" stroke="#DAC8B4" stroke-width="0.5" stroke-miterlimit="10" stroke-linecap="round" stroke-linejoin="round"></path><path d="M1781.92 239.7C1782.43 234.208 1783.07 228.716 1783.58 223.225" stroke="#DAC8B4" stroke-width="0.5" stroke-miterlimit="10" stroke-linecap="round" stroke-linejoin="round"></path></g><g clip-path="url(#clip1_138_306)"><path d="M82.8569 253.326C83.2188 253.639 83.5358 254.104 84.2179 253.893C83.7309 253.584 83.6582 252.571 82.8569 253.326Z" fill="#FFECDB"></path><path d="M116.104 290.285C115.579 289.965 115.103 289.617 114.639 289.232C114.578 289.297 114.567 289.335 114.507 289.4C105.514 299.427 98.0833 310.741 88.6531 320.433C79.6347 329.708 71.9991 340.177 63.2184 350.886C49.1346 367.383 34.2677 384.433 19.8654 401.869C12.3945 410.94 4.44078 419.828 0.220542 431.182C-0.0530883 431.969 -1.06244 432.869 0.166491 433.603C1.25465 434.255 1.81925 433.182 2.38564 432.523C4.23502 430.178 5.99284 427.723 7.90699 425.437C14.8271 417.112 21.5797 408.654 28.2942 400.185C39.5986 385.966 51.0592 371.917 62.8662 358.095C74.5299 344.477 86.5666 331.136 97.4305 316.869C103.857 308.398 110.736 300.349 117.681 292.361C117.801 292.232 117.922 292.102 118.005 291.962C117.483 291.353 116.835 290.748 116.104 290.285Z" fill="#DAC8B4"></path><path d="M184.725 329.304C191.774 328.658 198.598 329.889 204.747 333.688C205.581 334.223 207.182 334.117 206.822 333.515C205.653 331.6 205.445 329.226 203.947 327.585C199.375 322.641 194.645 317.815 190.074 312.871C184.251 306.567 177.841 300.997 170.053 297.292C166.904 295.784 163.567 294.634 159.993 293.165C164.541 291.616 167.719 288.548 171.379 286.365C180.986 280.692 189.892 274.316 197.88 266.43C203.239 261.154 207.6 255.337 210.219 248.427C215.022 235.799 217.254 222.784 215.181 209.242C214.915 207.345 215.073 205.409 212.33 205.467C211.165 205.494 211.551 204.328 211.576 203.963C212.238 199.202 210.973 194.532 210.923 189.807C210.853 185.986 210.678 186.017 206.789 187.017C205.349 187.418 203.943 188.82 202.54 188.117C201.072 187.353 202.008 185.44 201.748 184.082C200.941 179.961 198.794 178.418 194.864 179.695C190.885 180.999 187.056 182.636 183.199 184.223C181.544 184.932 180.898 184.742 181.459 182.842C181.684 182.082 181.957 181.295 182.056 180.54C182.376 178.197 181.367 177.279 179.043 177.873C165.924 181.311 152.896 184.859 141.833 193.366C137.29 196.857 132.404 199.835 128.658 204.264C127.272 205.88 125.989 207.566 124.262 209.08C120.755 201.931 117.431 195 111.832 189.34C109.026 186.528 103.7 185.121 101.109 188.859C100.453 189.821 99.2715 190.464 98.2155 191.102C95.5776 192.761 93.0468 194.616 90.9962 196.944C86.6645 201.82 85.3295 208.159 83.2657 214.449C82.9194 214.223 82.6266 214.095 82.3943 213.902C74.3095 205.607 64.0205 200.999 53.6375 196.57C52.3525 196.025 51.0493 195.682 49.6297 195.593C43.8749 195.216 38.0478 195.643 32.5277 193.352C30.4292 192.484 29.1574 194.133 29.6914 196.522C30.3499 199.608 32.5385 201.989 33.4922 204.915C36.0304 212.687 37.6136 220.756 40.239 228.513C42.2381 234.473 44.6958 240.28 49.1091 244.641C53.5872 249.061 59.496 251.715 65.6118 253.108C73.5584 254.876 81.4402 256.584 89.032 259.693C95.4797 262.341 101.587 265.301 106.621 270.217C107.231 270.81 108.235 271.189 108.224 272.342C108.21 275.189 109.204 277.837 109.725 280.552C110.412 284.101 112.018 287.054 114.623 289.145C115.212 288.41 115.696 287.19 116.983 288.148C118.837 289.563 119.096 290.507 118.077 291.859C119.479 293.264 120.799 294.811 123.095 294.869C123.911 294.904 123.912 296.019 124.108 296.614C126.749 304.458 131.335 310.894 137.491 316.347C145.78 323.669 155.283 328.004 166.277 329.103C172.443 329.767 178.565 329.881 184.725 329.304ZM212.239 208.992C214.709 236.161 206.293 258.504 183.551 274.385C185.934 270.09 188.531 265.776 189.728 260.883C192.677 248.658 193.875 236.205 194.796 223.712C194.901 222.38 195.168 221.054 195.109 219.715C194.869 214.934 198.146 212.928 201.837 211.622C205.145 210.492 208.672 209.881 212.239 208.992ZM207.948 190.086C207.649 194.459 207.186 198.825 208.802 203.144C209.658 205.421 208.873 207.379 205.847 207.973C202.647 208.597 199.483 209.522 196.192 211.153C196.242 207.904 196.257 205.058 196.271 202.212C196.278 201.346 196.42 200.727 197.036 200.041C198.036 198.891 198.881 197.571 199.535 196.194C202.04 191.068 202.309 190.858 207.948 190.086ZM181.595 187.839C186.303 185.883 190.985 183.878 196.108 183.037C198.016 182.732 198.599 183.276 198.838 185.123C199.252 188.757 199.047 192.249 197.179 195.498C196.731 196.316 196.33 197.396 195.007 196.138C194.112 195.253 192.888 195.76 191.808 196.06C187.547 197.198 183.298 198.298 178.689 199.498C179.258 196.031 179.836 192.814 180.3 189.564C180.384 188.721 180.666 188.185 181.595 187.839ZM147.043 194.326C157.356 189.481 167.131 183.238 178.979 181.448C177.55 187.265 177.041 193.187 176.303 199.042C176.08 200.917 174.705 200.677 173.663 200.989C161.914 204.542 150.33 208.516 139.679 214.79C135.121 217.492 130.827 220.562 126.291 224.593C126.035 220.841 125.377 217.754 125.724 214.759C126.061 211.801 128.453 209.574 130.242 207.294C134.776 201.733 140.556 197.409 147.043 194.326ZM109.307 189.916C114.406 194.892 117.616 201.087 120.134 207.531C123.295 215.57 123.935 223.897 120.308 232.121C117.798 237.824 115.212 243.505 112.663 249.197C112.558 249.414 112.491 249.642 112.385 249.859C111.99 249.659 112.22 249.438 112.364 249.232C111.302 244.994 111.367 240.717 112.134 236.441C113.193 230.474 114.101 224.463 115.54 218.609C117.162 211.858 114.681 206.83 109.953 202.417C107.621 200.242 105.618 197.791 105.163 194.435C104.99 193.062 105.03 191.669 105.731 190.554C106.555 189.021 107.672 188.318 109.307 189.916ZM38.6574 212.884C38.7446 212.869 38.881 212.827 38.9682 212.811C38.9838 212.898 38.9993 212.985 39.0149 213.073C38.9277 213.088 38.8517 213.066 38.7645 213.081C38.7377 213.032 38.6729 212.972 38.6574 212.884ZM82.8568 253.326C82.7808 253.303 82.7428 253.292 82.7048 253.281C75.2236 251.195 67.3291 250.93 60.0817 247.633C54.1462 244.93 49.5378 241.091 46.4921 235.316C42.9488 228.569 40.8796 221.307 38.6523 213.461C40.7034 214.769 41.0369 216.438 41.6995 217.831C43.7562 222.198 46.1195 226.366 48.3843 230.587C51.3565 236.051 55.9433 239.264 61.6447 241.361C69.3263 244.166 75.9685 248.813 82.7048 253.281C82.754 253.254 82.792 253.265 82.8568 253.326C82.868 253.288 82.868 253.288 82.8568 253.326C83.6468 252.609 83.7307 253.584 84.2178 253.893C83.5357 254.104 83.2187 253.639 82.8568 253.326ZM60.2339 237.185C55.0714 235.082 51.8964 231.005 49.4398 226.314C45.1312 218.101 41.0196 209.781 35.579 202.185C34.6816 200.887 34.1512 199.326 33.1898 197.265C38.6096 199.196 43.7865 198.453 48.8728 198.716C49.5636 198.754 50.3417 198.778 51.0032 199.056C58.2013 202.379 65.9528 204.668 72.4137 209.509C75.8363 212.048 79.2477 214.626 82.3948 217.538C83.0158 218.093 82.8924 218.511 82.8985 219.05C83.3252 231.734 85.5791 243.967 91.9459 255.142C92.0797 255.388 92.1152 255.688 92.1886 255.999C82.6997 247.702 71.7793 241.875 60.2339 237.185ZM89.5264 238.853C88.0611 233.463 86.7926 227.966 86.7271 222.452C86.6278 210.897 89.995 200.614 100.017 193.535C100.433 193.245 100.823 192.905 101.277 192.626C101.583 192.427 101.665 191.873 102.44 192.185C101.857 197.796 105.251 201.69 108.816 205.428C112.094 208.875 113.465 212.626 112.241 217.47C110.746 223.514 109.706 229.693 108.514 235.826C107.75 239.814 107.851 243.81 108.278 247.819C108.9 253.828 109.434 259.852 108.913 265.812C96.767 260.779 92.5885 250.168 89.5264 238.853ZM111.702 275.394C111.183 273.794 111.391 271.832 111.607 270.119C113.17 257.692 116.888 245.942 122.912 234.914C123.1 234.557 123.338 234.172 123.412 233.781C124.473 228.228 128.72 225.599 132.953 222.594C141.125 216.745 149.926 212.404 159.438 209.429C170.304 206.069 180.873 201.754 191.839 198.755C192.335 198.612 192.809 198.546 193.393 198.387C192.852 217.148 190.506 235.582 187.481 253.94C186.232 261.668 182.889 268.654 177.574 274.479C173.491 278.933 169.526 283.546 164.537 287.154C160.182 290.288 155.652 292.338 150.114 292.066C142.944 291.725 135.824 293.175 128.581 291.821C117.138 289.722 114.869 285.376 111.702 275.394ZM141.981 315.69C135.103 310.726 130.39 303.881 126.658 296.376C125.62 294.293 127.422 294.205 128.308 294.425C135.751 296.499 143.283 294.634 150.75 295.228C159.713 295.933 167.853 299.287 175.187 304.386C185.168 311.299 192.549 320.997 201.698 328.904C195.652 325.177 189.094 325.141 182.357 325.713C167.782 326.944 154.068 324.423 141.981 315.69Z" fill="#DAC8B4"></path><path d="M116.987 288.274C115.701 287.315 115.216 288.535 114.627 289.27C115.092 289.655 115.568 290.003 116.093 290.323C116.824 290.786 117.471 291.391 118.07 292.022C119.1 290.632 118.88 289.7 116.987 288.274Z" fill="#DAC8B4"></path></g><defs><clipPath id="clip0_138_306"><rect width="168.199" height="200" fill="white" transform="translate(1680 95)"></rect></clipPath><clipPath id="clip1_138_306"><rect width="209.271" height="300" fill="white" transform="translate(163.154 481.816) rotate(-163.548)"></rect></clipPath></defs></svg>